<svg width="14" height="17" xmlns="http://www.w3.org/2000/svg" xmlns:xlink="http://www.w3.org/1999/xlink"><defs><path d="M13.222 0h-10.5C1.244 0 0 1.236 0 2.705v11.59C0 15.764 1.244 17 2.722 17h10.5c.467 0 .778-.31.778-.773V.773C14 .309 13.689 0 13.222 0zm-10.5 1.545h9.722v10.046H2.722a2.2 2.2 0 00-1.166.309V2.705c0-.619.544-1.16 1.166-1.16zm0 13.91c-.622 0-1.166-.541-1.166-1.16 0-.618.544-1.159 1.166-1.159h9.722v2.319H2.722z" id="a"/></defs><g fill="none" fill-rule="evenodd"><path d="M13.222 0h-10.5C1.244 0 0 1.236 0 2.705v11.59C0 15.764 1.244 17 2.722 17h10.5c.467 0 .778-.31.778-.773V.773C14 .309 13.689 0 13.222 0zm-10.5 1.545h9.722v10.046H2.722a2.2 2.2 0 00-1.166.309V2.705c0-.619.544-1.16 1.166-1.16zm0 13.91c-.622 0-1.166-.541-1.166-1.16 0-.618.544-1.159 1.166-1.159h9.722v2.319H2.722z" fill="#000" fill-rule="nonzero"/><mask id="b" fill="#fff"><use xlink:href="#a"/></mask><g mask="url(#b)" fill="#0A84FF" fill-rule="nonzero"><path d="M-2.333-.773h18.667v18.545H-2.333z"/></g><path d="M3.5 4.25h7m-7 2.125h7m-7 2.318h7" stroke="#0A84FF" stroke-width=".773" stroke-linecap="square"/></g></svg>