<svg xmlns="http://www.w3.org/2000/svg" width="48" height="48" viewBox="0 0 48 48">
    <g fill="none" fill-rule="evenodd" stroke="#FFF" stroke-width=".75">
        <path d="M34.66 17.931h-4.676l-.009-.021-.67-1.301c-.173-.336-.63-.609-1.015-.609h-9c-.386 0-.844.273-1.016.609l-.67 1.3c-.003.008-.005.015-.01.022h-4.893a.693.693 0 0 0-.701.68v14.086c0 .376.315.682.701.682H34.66a.694.694 0 0 0 .701-.682V18.61a.693.693 0 0 0-.7-.68z"/>
        <path d="M24 30a5.001 5.001 0 1 1 .003-10.002A5.001 5.001 0 0 1 23.999 30z"/>
    </g>
</svg>
