<svg width="22" height="20" xmlns="http://www.w3.org/2000/svg"><g fill="#FFF" fill-rule="nonzero"><ellipse cx="8.276" cy="6.473" rx="1.509" ry="1.548"/><path d="M20.659 12.172a4.597 4.597 0 00-2.598-1.269v-7.87c0-.84-.335-1.592-.86-2.151A2.89 2.89 0 0015.108 0H2.954C2.137 0 1.404.344.86.882A3.046 3.046 0 000 3.032v12.839c0 .839.335 1.591.859 2.15a2.89 2.89 0 002.095.882H14.71c.775.645 1.739 1.054 2.807 1.054a4.376 4.376 0 003.143-1.333 4.61 4.61 0 001.3-3.226 4.61 4.61 0 00-1.3-3.226h-.001zM1.11 3.032c0-.516.21-.989.545-1.333.335-.344.796-.56 1.3-.56h12.152c.503 0 .963.216 1.299.56.335.344.544.817.544 1.333v6.71l-3.1-3.161a.552.552 0 00-.797 0l-4.672 4.817-3.164-3.269a.552.552 0 00-.796 0l-3.31 3.44V3.033l-.001-.001zm1.823 14.753v-.022c-.503 0-.963-.215-1.299-.559a1.99 1.99 0 01-.524-1.333v-2.688l3.73-3.828 3.164 3.247c.21.215.566.215.796 0l4.672-4.817 3.06 3.161-.19.065a1.884 1.884 0 00-.272.086c-.083.021-.167.064-.251.086a.621.621 0 00-.168.086c-.083.043-.146.064-.21.107l-.313.194c-.063.043-.105.064-.168.107-.042.022-.063.043-.105.065a2.55 2.55 0 00-.503.452 4.61 4.61 0 00-1.299 3.225c0 .323.042.624.105.947.021.086.042.15.063.236.06.218.13.433.21.645v.022c.083.172.167.365.272.516H2.933zm16.909.021a3.233 3.233 0 01-2.347.99c-.88 0-1.697-.366-2.284-.947-.083-.086-.167-.193-.251-.28-.063-.064-.126-.15-.189-.214a2.055 2.055 0 01-.21-.366c-.041-.086-.083-.15-.125-.236a1.853 1.853 0 01-.105-.366c-.02-.086-.062-.193-.083-.28a3.65 3.65 0 01-.063-.688c0-.946.377-1.785.964-2.408a3.233 3.233 0 012.346-.99c.922 0 1.74.388 2.347.99.608.602.964 1.462.964 2.408 0 .925-.377 1.764-.964 2.387z"/><path d="M19.318 14.817H18.04v-1.312a.57.57 0 00-.566-.58.57.57 0 00-.565.58v1.312H15.63a.57.57 0 00-.565.58.57.57 0 00.565.581h1.279v1.312a.57.57 0 00.565.581.57.57 0 00.566-.58v-1.313h1.278a.57.57 0 00.566-.58.57.57 0 00-.566-.58v-.001z"/></g></svg>