<svg xmlns="http://www.w3.org/2000/svg" xmlns:xlink="http://www.w3.org/1999/xlink" width="23" height="22" viewBox="0 0 23 22">
    <defs>
        <path id="a" d="M22 10.1v.9c0 6.1-4.9 11-11 11S0 17.1 0 11 4.9 0 11 0c1.5 0 3.1.3 4.5 1 .5.2.7.8.5 1.3-.2.5-.8.7-1.3.5-1.2-.5-2.4-.8-3.7-.8-5 0-9 4-9 9s4 9 9 9 9-4 9-9v-.9c0-.6.4-1 1-1s1 .4 1 1zm.7-8.8c-.4-.4-1-.4-1.4 0L11 11.6 8.7 9.3c-.4-.4-1-.4-1.4 0-.4.4-.4 1 0 1.4l3 3c.2.2.5.3.7.3.2 0 .5-.1.7-.3l11-11c.4-.4.4-1 0-1.4z"/>
        <linearGradient id="c" x1="100%" x2="0%" y1="6.719%" y2="100%">
            <stop offset="0%" stop-color="#00F9F0"/>
            <stop offset="100%" stop-color="#13EF44"/>
        </linearGradient>
    </defs>
    <g fill="none" fill-rule="evenodd">
        <mask id="b" fill="#fff">
            <use xlink:href="#a"/>
        </mask>
        <use fill="#0DF37D" fill-rule="nonzero" xlink:href="#a"/>
        <g fill="url(#c)" mask="url(#b)">
            <path d="M-2-1h28v24H-2z"/>
        </g>
    </g>
</svg>
