<svg xmlns="http://www.w3.org/2000/svg" xmlns:xlink="http://www.w3.org/1999/xlink" width="14" height="14"><defs><path id="a" d="M13.7 12.3c.4.4.4 1 0 1.4-.2.2-.4.3-.7.3-.3 0-.5-.1-.7-.3L7 8.4l-5.3 5.3c-.2.2-.4.3-.7.3-.3 0-.5-.1-.7-.3-.4-.4-.4-1 0-1.4L5.6 7 .3 1.7C-.1 1.3-.1.7.3.3c.4-.4 1-.4 1.4 0L7 5.6 12.3.3c.4-.4 1-.4 1.4 0 .4.4.4 1 0 1.4L8.4 7l5.3 5.3z"/></defs><g fill="none" fill-rule="evenodd"><mask id="b" fill="#fff"><use xlink:href="#a"/></mask><use fill="#000" fill-rule="nonzero" xlink:href="#a"/><g mask="url(#b)"><path fill="#38383D" d="M-5-5h24v24H-5z"/></g></g></svg>