<svg xmlns="http://www.w3.org/2000/svg" width="17" height="17" viewBox="0 0 17 17">
    <path fill="#EDEDF0" fill-rule="nonzero" stroke="#323232" stroke-width=".667" d="M8.5 1C4.375 1 1 4.375 1 8.5S4.375 16 8.5 16 16 12.625 16 8.5 12.625 1 8.5 1zm5.175 4.5H11.5c-.225-.975-.6-1.8-1.05-2.7 1.35.525 2.55 1.425 3.225 2.7zM8.5 2.5c.6.9 1.125 1.875 1.425 3h-2.85c.3-1.05.825-2.1 1.425-3zM2.725 10A4.836 4.836 0 0 1 2.5 8.5c0-.525.075-1.05.225-1.5h2.55c-.075.525-.075.975-.075 1.5s.075.975.075 1.5h-2.55zm.6 1.5H5.5c.225.975.6 1.8 1.05 2.7-1.35-.525-2.55-1.425-3.225-2.7zm2.175-6H3.325C4.075 4.225 5.2 3.325 6.55 2.8c-.45.9-.825 1.725-1.05 2.7zm3 9c-.6-.9-1.125-1.875-1.425-3h2.85c-.3 1.05-.825 2.1-1.425 3zm1.725-4.5h-3.45c-.075-.525-.15-.975-.15-1.5s.075-.975.15-1.5H10.3c.075.525.15.975.15 1.5s-.15.975-.225 1.5zm.225 4.2a10.64 10.64 0 0 0 1.05-2.7h2.175C13 12.775 11.8 13.675 10.45 14.2zM11.8 10c.075-.525.075-.975.075-1.5S11.8 7.525 11.8 7h2.55c.15.45.225.975.225 1.5S14.5 9.55 14.35 10H11.8z"/>
</svg>
