<svg xmlns="http://www.w3.org/2000/svg" width="83" height="77">
  <g fill="none">
    <path fill="#DCDBDF" d="M60.308 10.989l-24.012 6.434-8.054-4.329a8.463 8.463 0 0 0-6.2-.726L8.827 15.91c-4.534 1.215-7.217 5.907-5.992 10.48l11.092 41.396c1.226 4.573 5.895 7.295 10.43 6.08l49.261-13.2c4.535-1.215 7.218-5.907 5.992-10.48l-8.874-33.117c-1.225-4.572-5.894-7.294-10.428-6.08z"/>
    <path fill="#FFF" d="M47.882 56.489c-8.002 2.144-16.227-2.605-18.37-10.607-2.145-8.002 2.604-16.227 10.606-18.37 8.002-2.145 16.227 2.604 18.37 10.606 2.135 8-2.61 16.218-10.606 18.37zm-6.515-24.314a5.633 5.633 0 0 0-4.241 7.347 1.826 1.826 0 0 0 3.527-.945c-.54-2.016.601-2.592 1.66-2.875a2.306 2.306 0 0 1 2.679.89 1.865 1.865 0 0 1-.52 2.333 5.713 5.713 0 0 0-1.695 5.563l.182.68a1.826 1.826 0 0 0 3.526-.946l-.2-.746a2.174 2.174 0 0 1 .783-1.99 5.502 5.502 0 0 0 1.082-6.733 5.921 5.921 0 0 0-6.783-2.578zm4.118 15.367a2.608 2.608 0 1 0 1.35 5.039 2.608 2.608 0 0 0-1.35-5.039z"/>
  </g>
</svg>
