<svg width="20" height="22" xmlns="http://www.w3.org/2000/svg" xmlns:xlink="http://www.w3.org/1999/xlink"><defs><path d="M17 9h-1V6c0-3.3-2.7-6-6-6S4 2.7 4 6v3H3c-1.7 0-3 1.3-3 3v7c0 1.7 1.3 3 3 3h14c1.7 0 3-1.3 3-3v-7c0-1.7-1.3-3-3-3zM6 6c0-2.2 1.8-4 4-4s4 1.8 4 4v3H6V6zm12 13c0 .6-.4 1-1 1H3c-.6 0-1-.4-1-1v-7c0-.6.4-1 1-1h14c.6 0 1 .4 1 1v7z" id="a"/></defs><g fill="none" fill-rule="evenodd"><path d="M17 9h-1V6c0-3.3-2.7-6-6-6S4 2.7 4 6v3H3c-1.7 0-3 1.3-3 3v7c0 1.7 1.3 3 3 3h14c1.7 0 3-1.3 3-3v-7c0-1.7-1.3-3-3-3zM6 6c0-2.2 1.8-4 4-4s4 1.8 4 4v3H6V6zm12 13c0 .6-.4 1-1 1H3c-.6 0-1-.4-1-1v-7c0-.6.4-1 1-1h14c.6 0 1 .4 1 1v7z" fill="#000" fill-rule="nonzero"/><g><mask id="b" fill="#fff"><use xlink:href="#a"/></mask><path fill="#FFF" fill-rule="nonzero" mask="url(#b)" d="M-2-1h24v24H-2z"/></g></g></svg>