<svg width="18" height="22" xmlns="http://www.w3.org/2000/svg" xmlns:xlink="http://www.w3.org/1999/xlink"><defs><path d="M15 2h-1c0-1.1-.9-2-2-2H6C4.9 0 4 .9 4 2H3C1.3 2 0 3.3 0 5v14c0 1.7 1.3 3 3 3h12c1.7 0 3-1.3 3-3V5c0-1.7-1.3-3-3-3zM6 2h6v2H6V2zm10 17c0 .6-.4 1-1 1H3c-.6 0-1-.4-1-1V5c0-.6.4-1 1-1h1c0 1.1.9 2 2 2h6c1.1 0 2-.9 2-2h1c.6 0 1 .4 1 1v14z" id="a"/></defs><g fill="none" fill-rule="evenodd"><path d="M15 2h-1c0-1.1-.9-2-2-2H6C4.9 0 4 .9 4 2H3C1.3 2 0 3.3 0 5v14c0 1.7 1.3 3 3 3h12c1.7 0 3-1.3 3-3V5c0-1.7-1.3-3-3-3zM6 2h6v2H6V2zm10 17c0 .6-.4 1-1 1H3c-.6 0-1-.4-1-1V5c0-.6.4-1 1-1h1c0 1.1.9 2 2 2h6c1.1 0 2-.9 2-2h1c.6 0 1 .4 1 1v14z" fill="#000" fill-rule="nonzero"/><mask id="b" fill="#fff"><use xlink:href="#a"/></mask><g mask="url(#b)" fill="#FFF" fill-rule="nonzero"><path d="M-3-1h24v24H-3z"/></g><path d="M4 9h10v1H4V9zm0 3h10v1H4v-1zm0 3h10v1H4v-1z" fill="#FFF" fill-rule="nonzero"/></g></svg>