<?xml version="1.0" encoding="UTF-8"?>
<svg width="18px" height="22px" viewBox="0 0 18 22" version="1.1" xmlns="http://www.w3.org/2000/svg" xmlns:xlink="http://www.w3.org/1999/xlink">
    <!-- Generator: Sketch 51.2 (57519) - http://www.bohemiancoding.com/sketch -->
    <title>group_3</title>
    <desc>Created with Sketch.</desc>
    <defs>
        <path d="M15,2 L14,2 C14,0.9 13.1,0 12,0 L6,0 C4.9,0 4,0.9 4,2 L3,2 C1.3,2 0,3.3 0,5 L0,19 C0,20.7 1.3,22 3,22 L15,22 C16.7,22 18,20.7 18,19 L18,5 C18,3.3 16.7,2 15,2 Z M6,2 L12,2 L12,4 L6,4 L6,2 Z M16,19 C16,19.6 15.6,20 15,20 L3,20 C2.4,20 2,19.6 2,19 L2,5 C2,4.4 2.4,4 3,4 L4,4 C4,5.1 4.9,6 6,6 L12,6 C13.1,6 14,5.1 14,4 L15,4 C15.6,4 16,4.4 16,5 L16,19 Z" id="path-1"></path>
    </defs>
    <g id="Page-1" stroke="none" stroke-width="1" fill="none" fill-rule="evenodd">
        <g id="group_3">
            <g id="Group">
                <g id="b-link" fill="#000000" fill-rule="nonzero">
                    <path d="M15,2 L14,2 C14,0.9 13.1,0 12,0 L6,0 C4.9,0 4,0.9 4,2 L3,2 C1.3,2 0,3.3 0,5 L0,19 C0,20.7 1.3,22 3,22 L15,22 C16.7,22 18,20.7 18,19 L18,5 C18,3.3 16.7,2 15,2 Z M6,2 L12,2 L12,4 L6,4 L6,2 Z M16,19 C16,19.6 15.6,20 15,20 L3,20 C2.4,20 2,19.6 2,19 L2,5 C2,4.4 2.4,4 3,4 L4,4 C4,5.1 4.9,6 6,6 L12,6 C13.1,6 14,5.1 14,4 L15,4 C15.6,4 16,4.4 16,5 L16,19 Z" id="b"></path>
                </g>
                <g id="Clipped">
                    <mask id="mask-2" fill="white">
                        <use xlink:href="#path-1"></use>
                    </mask>
                    <g id="b"></g>
                    <g id="Group" mask="url(#mask-2)" fill="#FFFFFF" fill-rule="nonzero">
                        <g transform="translate(-3.000000, -1.000000)" id="Shape">
                            <polygon points="0 0 24 0 24 24 0 24"></polygon>
                        </g>
                    </g>
                </g>
            </g>
            <path d="M4,9 L14,9 L14,10 L4,10 L4,9 Z M4,12 L14,12 L14,13 L4,13 L4,12 Z M4,15 L14,15 L14,16 L4,16 L4,15 Z" id="Shape" fill="#FFFFFF" fill-rule="nonzero"></path>
        </g>
    </g>
</svg>