<svg xmlns="http://www.w3.org/2000/svg" width="22" height="20" viewBox="0 0 22 20">
    <g fill="none" fill-rule="nonzero">
        <path fill="#FFD469" d="M11.018.014c-5.507 0-9.97 4.47-9.97 9.986 0 .15.005.299.01.448a1.183 1.183 0 0 0 .154 2.357h.234c1.21 4.15 5.032 7.181 9.563 7.181 5.502 0 9.966-4.47 9.966-9.981.009-5.52-4.455-9.991-9.957-9.991z"/>
        <path fill="#2B3B47" d="M11.018 14.615c-1.486 0-2.033.824-2.092.919a.63.63 0 0 0 .696.941c.005 0 .533-.136 1.392-.136.858 0 1.39.136 1.395.136a.634.634 0 0 0 .795-.606.631.631 0 0 0-.176-.44c-.198-.253-.786-.814-2.01-.814zM17.437 11.398c0-.004-.004-.009-.004-.009a.062.062 0 0 0-.014-.018.467.467 0 0 0-.325-.217l-1.875-.683a.454.454 0 0 0-.41-.037.468.468 0 0 0-.263.607 1.921 1.921 0 0 0 1.79 1.217c.27 0 .541-.059.79-.177a.467.467 0 0 0 .348-.294.466.466 0 0 0-.037-.389zM6.916 10.416a.454.454 0 0 0-.266-.022.493.493 0 0 0-.195.027l-1.974.72a.467.467 0 0 0-.28.597.47.47 0 0 0 .316.29 1.894 1.894 0 0 0 1.532.094c.515-.19.93-.588 1.13-1.1a.468.468 0 0 0-.263-.606z"/>
        <path fill="#FFB636" d="M20.97 10.443c.005-.149.01-.298.01-.448a9.94 9.94 0 0 0-2.748-6.877 10.212 10.212 0 0 1 1.518 5.375c0 5.665-4.585 10.258-10.24 10.258-1.97 0-3.804-.556-5.367-1.52a9.915 9.915 0 0 0 6.866 2.75c4.531 0 8.357-3.03 9.563-7.18h.235c.655 0 1.184-.53 1.184-1.186a1.166 1.166 0 0 0-1.021-1.172z"/>
    </g>
</svg>
