<svg xmlns="http://www.w3.org/2000/svg" width="22" height="20"><g fill="none"><path fill="#FFD469" d="M11.023.014c-5.507 0-9.97 4.47-9.97 9.986 0 .15.004.299.009.448a1.183 1.183 0 00.154 2.357h.234c1.215 4.145 5.037 7.177 9.573 7.177 5.502 0 9.965-4.47 9.965-9.982 0-5.516-4.463-9.986-9.965-9.986z"/><path fill="#2B3B47" d="M15.983 6.538c.605 0 1.093.49 1.093 1.095v2.457c0 .607-.488.136-1.093.136-.606 0-1.093.466-1.093-.136V7.633c0-.606.492-1.095 1.093-1.095z"/><path fill="#F2A74E" d="M14.989 10.697a.338.338 0 01-.307-.19.345.345 0 01.153-.462 2.61 2.61 0 012.29-.031.342.342 0 11-.293.62 1.927 1.927 0 00-1.69.022.312.312 0 01-.153.04z"/><path fill="#2B3B47" d="M6.062 6.538c.606 0 1.094.49 1.094 1.095v2.457c0 .607-.488.136-1.094.136-.605 0-1.093.466-1.093-.136V7.633c0-.606.493-1.095 1.093-1.095z"/><path fill="#F2A74E" d="M5.069 10.697a.338.338 0 01-.308-.19.345.345 0 01.154-.462 2.61 2.61 0 012.29-.031.342.342 0 11-.293.62 1.927 1.927 0 00-1.69.022.325.325 0 01-.153.04z"/><path fill="#2B3B47" d="M17.772 12.869c-.23-.023-.461-.036-.687-.05a6.847 6.847 0 01-.497.109c-.334.045-.809.162-1.378.217-.569.05-1.238.154-1.947.185-.714.05-1.472.06-2.236.068-.759-.013-1.522-.022-2.236-.072-.714-.036-1.378-.136-1.947-.186-.57-.054-1.048-.167-1.378-.217a6.29 6.29 0 01-.497-.109c-.235.014-.465.032-.7.05a.153.153 0 00-.081.032.184.184 0 00-.041.249l.122.185c.28.426.56.792.845 1.1.28.317.56.588.845.841.56.498 1.124.865 1.689 1.172.154.082.307.14.46.209.86-.602 1.853.212 2.915.212 1.066 0 2.06-.81 2.918-.203.153-.068.303-.127.456-.204a9.225 9.225 0 001.69-1.176c.28-.254.56-.525.844-.847.28-.307.565-.678.845-1.104l.122-.19a.185.185 0 00.027-.086.175.175 0 00-.153-.185z"/><path fill="#FFF" d="M6.844 13.14c.57.05 1.238.15 1.947.186.714.05 1.473.059 2.236.072.759-.013 1.522-.018 2.236-.068.714-.036 1.378-.135 1.947-.185.57-.055 1.048-.168 1.378-.217.262-.05.434-.09.497-.109-.334-.023-.669-.04-.998-.063l-1.69-.064c-1.125-.036-2.25-.036-3.374-.054-1.125.018-2.25.018-3.375.054l-1.69.064c-.33.022-.659.04-.989.063.059.014.235.059.497.109.33.045.809.158 1.378.212z"/><path fill="#FF473E" d="M13.932 16.665c.004 0 .004 0 .009-.004-.858-.602-1.857-.408-2.914-.276h-.009c-1.057-.132-2.06-.326-2.914.276.005 0 .005.004.01.004-.005 0-.005.005-.01.005a7.072 7.072 0 002.869.633c.013 0 .032.005.045.005h.009c.014 0 .032-.005.045-.005a7.074 7.074 0 002.869-.633c-.005-.005-.005-.005-.01-.005z"/><path fill="#FFB636" d="M20.975 10.443c.004-.149.009-.298.009-.448a9.94 9.94 0 00-2.747-6.877 10.212 10.212 0 011.518 5.375c0 5.665-4.585 10.258-10.241 10.258a10.18 10.18 0 01-5.367-1.52 9.915 9.915 0 006.867 2.75c4.53 0 8.357-3.03 9.563-7.18h.235c.655 0 1.183-.53 1.183-1.186a1.166 1.166 0 00-1.02-1.172z"/></g></svg>