<svg width="18" height="20" xmlns="http://www.w3.org/2000/svg" xmlns:xlink="http://www.w3.org/1999/xlink"><defs><path d="M18 19a1 1 0 01-2 0v-2a3 3 0 00-3-3H5a3 3 0 00-3 3v2a1 1 0 01-2 0v-2a5 5 0 015-5h8a5 5 0 015 5v2zm-9-9A5 5 0 119 0a5 5 0 010 10zm0-2a3 3 0 100-6 3 3 0 000 6z" id="a"/></defs><g fill="none" fill-rule="evenodd"><path d="M18 19a1 1 0 01-2 0v-2a3 3 0 00-3-3H5a3 3 0 00-3 3v2a1 1 0 01-2 0v-2a5 5 0 015-5h8a5 5 0 015 5v2zm-9-9A5 5 0 119 0a5 5 0 010 10zm0-2a3 3 0 100-6 3 3 0 000 6z" fill="#000" fill-rule="nonzero"/><g><mask id="b" fill="#fff"><use xlink:href="#a"/></mask><path fill="#FFF" fill-rule="nonzero" mask="url(#b)" d="M-3-2h24v24H-3z"/></g></g></svg>